# xmcd
#
# Track frame offsets:
#        150
#        11777
#        28277
#        53922
#        70392
#        89950
#        108470
#        124837
#        134460
#        150010
#        170100
#        191730
#        211107
#        227820
#        241615
#        266145
#        290947
#
# Disc length: 4100 seconds
#
# Revision: 4
# Processed by: cddbd v1.5.1PL0 Copyright (c) Steve Scherf et al.
# Submitted via: ExactAudioCopy v0.95a5
#
DISCID=05100211
DTITLE=De La Soul - Stakes Is High
DYEAR=1996
DGENRE=Hip-Hop
TTITLE0=Intro
TTITLE1=Supa Emcees
TTITLE2=The Bizness
TTITLE3=Wonce Again Long Island
TTITLE4=Dinninit
TTITLE5=Brakes
TTITLE6=Dog Eat Dog
TTITLE7=Baby Baby Baby Baby Ooh Baby
TTITLE8=Long Island Degrees
TTITLE9=Betta Listen
TTITLE10=Itzsoweeze (HOT)
TTITLE11=4 More
TTITLE12=Big Brother Beat
TTITLE13=Down Syndrome
TTITLE14=Pony Ride
TTITLE15=Stakes Is High
TTITLE16=Sunshine
EXTD=
EXTT0=
EXTT1=
EXTT2=featuring Common
EXTT3=
EXTT4=
EXTT5=
EXTT6=
EXTT7=
EXTT8=
EXTT9=
EXTT10=
EXTT11=featuring Zhane
EXTT12=featuring Mos Def
EXTT13=
EXTT14=featuring Truth Enola
EXTT15=
EXTT16=
PLAYORDER=
